<svg xmlns="http://www.w3.org/2000/svg" viewBox="0 0 96 96" role="img" aria-label="Restaurant Operations">
  <defs>
    <linearGradient id="bg" x1="14" y1="8" x2="84" y2="90" gradientUnits="userSpaceOnUse">
      <stop stop-color="#14532d"/>
      <stop offset="0.58" stop-color="#0f766e"/>
      <stop offset="1" stop-color="#b45309"/>
    </linearGradient>
  </defs>
  <rect width="96" height="96" rx="22" fill="url(#bg)"/>
  <circle cx="48" cy="48" r="30" fill="#fffaf0" opacity="0.96"/>
  <path d="M31 29c0-1.8 1.5-3.2 3.2-3.2s3.2 1.5 3.2 3.2v16.5h3.2V29c0-1.8 1.4-3.2 3.2-3.2S47 27.2 47 29v17.1c0 5.7-3.5 10.5-8.5 12.4v11c0 1.9-1.6 3.5-3.5 3.5s-3.5-1.6-3.5-3.5v-40.5Z" fill="#14532d"/>
  <path d="M61 26c7.5 0 13 6.6 13 15.2 0 6.6-3.2 12.1-8 14.2v14.1c0 1.9-1.6 3.5-3.5 3.5S59 71.4 59 69.5V56.2c-5.8-.9-10.2-7.3-10.2-15 0-8.6 5-15.2 12.2-15.2Z" fill="#b45309"/>
</svg>
